<svg width="330" height="330" viewBox="0 0 330 330" fill="none" xmlns="http://www.w3.org/2000/svg">
<path d="M165 324.864C253.333 324.864 324.864 253.333 324.864 165C324.864 76.6668 253.333 5.13617 165 5.13617C76.6673 5.13617 5.13679 76.6668 5.13679 165C4.89675 253.333 76.6673 324.864 165 324.864Z" fill="#1A1E22"/>
<path d="M204.373 183.522L215.607 189.917L226.841 196.311C229.537 197.855 231.334 200.721 231.109 203.588V229.166C231.109 232.253 229.537 234.899 226.841 236.442L215.607 242.837L204.373 249.231C201.676 250.775 198.531 250.775 195.61 249.231L184.376 242.837L173.142 236.442C170.446 234.899 168.648 232.032 168.873 229.166V205.131L116.298 175.364L126.633 190.358L113.826 197.634C111.13 199.178 107.985 199.178 105.064 197.634L93.8298 191.24L82.5958 184.845C79.8996 183.302 78.3269 180.656 78.3269 177.569V151.99C78.3269 148.903 79.8996 146.257 82.5958 144.714L93.8298 138.319L105.064 131.925C107.76 130.381 110.905 130.381 113.826 131.925L125.06 138.319L134.946 143.832L168.873 124.648V100.834C168.873 97.7471 170.446 95.1011 173.142 93.5576L184.376 87.1631L195.61 80.7685C198.306 79.225 201.452 79.225 204.373 80.7685L215.607 87.1631L226.841 93.5576C229.537 95.1011 231.334 97.9676 231.109 100.834V126.412C231.109 129.499 229.537 132.145 226.841 133.689L215.607 140.083L204.373 146.478C201.676 148.021 198.531 148.021 195.61 146.478L184.376 140.083L183.702 139.863L195.61 122.664L174.49 134.571L140.563 153.754V176.466L174.49 195.65L184.376 190.137L195.61 183.743C198.306 181.758 201.901 181.979 204.373 183.522Z" fill="white"/>
</svg>
